# xmcd
# 
# Track frame offsets:
#     150
#     26548
#     54927
#     77791
#     106040
#     128091
#     150437
#     183729
#     202856
#     244763
#     269961
#     316769
#     339676
# 
# Disc length: 4819
# 
# Revision: 2
# Processed by: cddbd v1.5.2PL0 Copyright (c) Steve Scherf et al.
# Submitted via: BonkEnc v1.0.6
# 
DISCID=aa12d10d
DTITLE=Aynsley Lister - Live !
DYEAR=2004
DGENRE=Blues-Rock
TTITLE0=Aeroplane Blues
TTITLE1=As The Crow Flies
TTITLE2=Say Goodbye
TTITLE3=Balls Of Steel
TTITLE4=Snake
TTITLE5=Everything I Need
TTITLE6=Angle 'O' Mine
TTITLE7=Now You're Gone
TTITLE8=Take Me To The River
TTITLE9=Runnin' Out On Me
TTITLE10=Sometimes It Gets 2 Me
TTITLE11=Soundman
TTITLE12=Fallin' Down
EXTD=YEAR: 2004
EXTT0=
EXTT1=
EXTT2=
EXTT3=
EXTT4=
EXTT5=
EXTT6=
EXTT7=
EXTT8=
EXTT9=
EXTT10=
EXTT11=
EXTT12=
PLAYORDER=
